<?xml version="1.0" encoding="UTF-8"?>
<svg xmlns="http://www.w3.org/2000/svg" xmlns:xlink="http://www.w3.org/1999/xlink" viewBox="0 0 96 96" width="96px" height="96px">
<g id="surface89822531">
<path style=" stroke:none;fill-rule:nonzero;fill:rgb(37.254903%,74.901962%,97.647059%);fill-opacity:1;" d="M 48 8 C 25.945312 8 8 25.945312 8 48 C 8 70.054688 25.945312 88 48 88 C 70.054688 88 88 70.054688 88 48 C 88 25.945312 70.054688 8 48 8 Z M 65 51 L 51 51 L 51 65 C 51 66.65625 49.65625 68 48 68 C 46.34375 68 45 66.65625 45 65 L 45 51 L 31 51 C 29.34375 51 28 49.65625 28 48 C 28 46.34375 29.34375 45 31 45 L 45 45 L 45 31 C 45 29.34375 46.34375 28 48 28 C 49.65625 28 51 29.34375 51 31 L 51 45 L 65 45 C 66.65625 45 68 46.34375 68 48 C 68 49.65625 66.65625 51 65 51 Z M 65 51 "/>
</g>
</svg>
