<?xml version="1.0" encoding="UTF-8"?>
<svg xmlns="http://www.w3.org/2000/svg" xmlns:xlink="http://www.w3.org/1999/xlink" viewBox="0 0 96 96" width="96px" height="96px">
<g id="surface90053125">
<path style=" stroke:none;fill-rule:nonzero;fill:rgb(37.254903%,74.901962%,97.647059%);fill-opacity:1;" d="M 78.277344 52.5625 C 76.851562 51.519531 76 49.839844 76 48.066406 C 76 46.296875 76.851562 44.617188 78.277344 43.574219 L 84.863281 38.742188 C 85.914062 37.972656 86.347656 36.613281 85.9375 35.375 C 84.242188 30.28125 81.558594 25.632812 77.964844 21.558594 C 77.097656 20.582031 75.703125 20.273438 74.507812 20.796875 L 67.089844 24.058594 C 65.472656 24.773438 63.59375 24.671875 62.058594 23.785156 C 60.527344 22.898438 59.496094 21.324219 59.304688 19.566406 L 58.410156 11.421875 C 58.269531 10.125 57.304688 9.070312 56.03125 8.808594 C 50.835938 7.746094 45.378906 7.726562 40.09375 8.789062 C 38.808594 9.046875 37.84375 10.101562 37.699219 11.402344 L 36.816406 19.496094 C 36.621094 21.257812 35.59375 22.832031 34.058594 23.714844 C 32.527344 24.601562 30.648438 24.707031 29.027344 23.992188 L 21.570312 20.710938 C 20.386719 20.1875 18.984375 20.492188 18.121094 21.464844 C 14.511719 25.523438 11.816406 30.164062 10.105469 35.257812 C 9.6875 36.492188 10.121094 37.859375 11.175781 38.632812 L 17.71875 43.433594 C 19.148438 44.480469 20 46.160156 20 47.933594 C 20 49.703125 19.148438 51.382812 17.722656 52.425781 L 11.136719 57.257812 C 10.085938 58.027344 9.652344 59.386719 10.0625 60.625 C 11.757812 65.71875 14.441406 70.367188 18.035156 74.441406 C 18.902344 75.421875 20.300781 75.730469 21.492188 75.203125 L 28.910156 71.941406 C 30.527344 71.226562 32.40625 71.328125 33.941406 72.214844 C 35.472656 73.101562 36.503906 74.675781 36.695312 76.433594 L 37.589844 84.578125 C 37.730469 85.875 38.695312 86.929688 39.96875 87.191406 C 42.597656 87.726562 45.296875 88 48 88 C 50.636719 88 53.296875 87.734375 55.90625 87.210938 C 57.191406 86.953125 58.15625 85.894531 58.296875 84.59375 L 59.183594 76.503906 C 59.378906 74.742188 60.40625 73.164062 61.941406 72.28125 C 63.472656 71.398438 65.351562 71.296875 66.972656 72.007812 L 74.429688 75.285156 C 75.617188 75.8125 77.015625 75.507812 77.878906 74.53125 C 81.488281 70.472656 84.183594 65.832031 85.894531 60.738281 C 86.3125 59.503906 85.878906 58.136719 84.824219 57.363281 Z M 48 62 C 40.269531 62 34 55.730469 34 48 C 34 40.269531 40.269531 34 48 34 C 55.730469 34 62 40.269531 62 48 C 62 55.730469 55.730469 62 48 62 Z M 48 62 "/>
</g>
</svg>
